<?xml version="1.0" encoding="UTF-8"?>
<svg version="1.1" xmlns="http://www.w3.org/2000/svg" width="1182" height="1182">
<path d="M0 0 C0.9597876 0.33837891 0.9597876 0.33837891 1.93896484 0.68359375 C33.9528094 12.23304697 58.46494339 33.79977471 77 62 C77.98033203 63.485 77.98033203 63.485 78.98046875 65 C88.03131986 79.58077616 93.3600096 96.32611885 97 113 C97.36931641 114.67642578 97.36931641 114.67642578 97.74609375 116.38671875 C99.17295374 124.38697513 99.19815448 132.3914724 99.25 140.5 C99.25942627 141.6351001 99.26885254 142.7702002 99.27856445 143.93969727 C99.2573167 149.3241978 99.22474064 153.98550522 97 159 C96.01955214 156.05865643 95.89601297 154.23343306 95.9375 151.17578125 C95.94523437 150.22896484 95.95296875 149.28214844 95.9609375 148.30664062 C95.9867244 146.33007478 96.01276098 144.35351218 96.0390625 142.37695312 C96.08425054 136.80752742 95.83641487 131.50857607 95 126 C93.98292969 127.50626953 93.98292969 127.50626953 92.9453125 129.04296875 C78.03599685 150.99826458 78.03599685 150.99826458 71.69921875 157.28125 C69.18250083 161.30799867 69.79223525 164.70942113 70.25 169.3125 C70.31574219 170.14845703 70.38148438 170.98441406 70.44921875 171.84570312 C70.61346451 173.89877508 70.80412539 175.94970386 71 178 C70.01 178.33 69.02 178.66 68 179 C67.01 174.38 66.02 169.76 65 165 C63.47375 166.711875 61.9475 168.42375 60.375 170.1875 C49.94609201 181.65121682 38.40741712 191.73792923 26 201 C25.43313477 201.4237793 24.86626953 201.84755859 24.28222656 202.28417969 C15.17525634 209.04297504 5.67647788 215.09357844 -4 221 C-3.34 222.093125 -2.68 223.18625 -2 224.3125 C-0.41535071 226.93707538 0 227.8256378 0 231 C-0.99 231.33 -1.98 231.66 -3 232 C-5.97 228.04 -5.97 228.04 -9 224 C-11.61636587 225.18624644 -14.21581408 226.3969886 -16.8125 227.625 C-17.55048828 227.95628906 -18.28847656 228.28757812 -19.04882812 228.62890625 C-23.77503036 230.8747857 -23.77503036 230.8747857 -26.59375 235.23046875 C-27.0578125 236.14441406 -27.521875 237.05835938 -28 238 C-31.07421875 238.69921875 -31.07421875 238.69921875 -34.6875 238.6875 C-40.54623778 238.845352 -44.69875958 239.56142941 -50 242 C-50 242.33 -50 242.66 -50 243 C-43.73 243.33 -37.46 243.66 -31 244 C-32 249 -32 249 -35 258 C-46.55 258.33 -58.1 258.66 -70 259 C-65.38 262.96 -60.76 266.92 -56 271 C-56.66 271.66 -57.32 272.32 -58 273 C-59.48144371 271.98247395 -60.95999368 270.96073497 -62.4375 269.9375 C-63.35273438 269.30457031 -64.26796875 268.67164063 -65.2109375 268.01953125 C-67.77869699 266.16024322 -70.15280063 264.18133356 -72.5625 262.125 C-77.0100449 258.57490613 -80.37019279 258.08936202 -86 258 C-85.67 256.02 -85.34 254.04 -85 252 C-85.64960693 252.11593506 -86.29921387 252.23187012 -86.96850586 252.35131836 C-89.95764765 252.88303431 -92.94755983 253.41029273 -95.9375 253.9375 C-96.95908203 254.11990234 -97.98066406 254.30230469 -99.03320312 254.49023438 C-107.58992374 255.99381148 -115.85699063 257.14701951 -124.5625 257.0625 C-125.78066406 257.05347656 -126.99882812 257.04445313 -128.25390625 257.03515625 C-129.16011719 257.02355469 -130.06632812 257.01195312 -131 257 C-131 257.66 -131 258.32 -131 259 C-130.29617188 259.25394531 -129.59234375 259.50789063 -128.8671875 259.76953125 C-125.70342657 261.12727606 -123.01441897 262.81636227 -120.125 264.6875 C-105.66505337 273.73138986 -90.1783602 278.86851117 -74 284 C-74.33 284.66 -74.66 285.32 -75 286 C-96.72882065 285.28757965 -119.84814896 273.77610321 -137 261 C-138.11955078 260.19369141 -138.11955078 260.19369141 -139.26171875 259.37109375 C-171.15458209 235.60890652 -190.19699507 200.81562322 -196.6875 162.0078125 C-202.14560094 124.33175462 -193.1976738 84.62109179 -170.33496094 53.91210938 C-165.54586143 47.65650895 -160.40410856 41.73073051 -155 36 C-154.37867188 35.32582031 -153.75734375 34.65164063 -153.1171875 33.95703125 C-114.68771687 -6.32155617 -51.66238714 -18.23832964 0 0 Z M-80 5 C-77.1903856 6.51130161 -74.56084596 7.4723138 -71.46484375 8.2265625 C-31.5604816 18.30378977 5.3307536 40.15908454 30.3347168 73.35498047 C32.42653058 76.11538399 34.08854108 78.05902739 37 80 C45.88479922 70.15198891 54.39036042 59.61082746 59 47 C55.5594138 42.26919398 51.48577797 38.69628105 47 35 C46.06027344 34.22269531 45.12054688 33.44539063 44.15234375 32.64453125 C23.87620274 16.26641419 -2.00276544 4.88026915 -28 2 C-28.96808594 1.89042969 -29.93617188 1.78085937 -30.93359375 1.66796875 C-47.28286691 0.07343626 -64.05364226 0.8657591 -80 5 Z M-101 12 C-98.43246237 23.58206419 -95.36026514 34.88905283 -91.75 46.1875 C-91.51243988 46.93826813 -91.27487976 47.68903625 -91.03012085 48.46255493 C-87.02972325 61.10347624 -82.71675401 73.60669506 -78 86 C-77.01 85.505 -77.01 85.505 -76 85 C-74.55588206 84.89639288 -73.10717535 84.85353855 -71.65939331 84.84178162 C-70.74791534 84.8319928 -69.83643738 84.82220398 -68.89733887 84.81211853 C-67.89464966 84.80636307 -66.89196045 84.8006076 -65.85888672 84.79467773 C-64.80520905 84.78477814 -63.75153137 84.77487854 -62.66592407 84.76467896 C-59.17053502 84.73299999 -55.67513236 84.70828124 -52.1796875 84.68359375 C-49.76115559 84.66302975 -47.34262733 84.64203343 -44.92410278 84.62062073 C-38.54875632 84.56534287 -32.17337712 84.51595882 -25.79797363 84.46777344 C-19.29627559 84.41760008 -12.79462527 84.36189231 -6.29296875 84.30664062 C6.47131315 84.19898918 19.23563576 84.09737195 32 84 C27.19455261 74.06934865 18.50382433 65.98134043 11 58 C10.12601563 57.04480469 10.12601563 57.04480469 9.234375 56.0703125 C-12.72798003 32.88782664 -51.92195239 9.08281256 -84.0625 6.4375 C-90.08173501 7.29739072 -95.42119699 9.65777696 -101 12 Z M-117 20 C-120.29262191 24.31897072 -122.15173327 28.95051695 -124 34 C-124.29068359 34.76119141 -124.58136719 35.52238281 -124.88085938 36.30664062 C-138.4886393 72.3716096 -141.35313343 111.21741016 -134 149 C-130.6051992 150.11183215 -128.10877532 149.88949543 -124.609375 149.28515625 C-123.52237305 149.09743652 -122.43537109 148.9097168 -121.31542969 148.71630859 C-119.55054199 148.39267334 -119.55054199 148.39267334 -117.75 148.0625 C-115.91937012 147.73113037 -115.91937012 147.73113037 -114.05175781 147.39306641 C-104.20276465 145.54498012 -94.4703163 143.30592555 -84.75 140.875 C-84.06804565 140.70541779 -83.38609131 140.53583557 -82.68347168 140.3611145 C-75.62605792 138.59569505 -68.73939047 136.75391336 -62 134 C-63.1258614 130.46157845 -64.33094759 127.33810482 -66 124 C-73.92 124 -81.84 124 -90 124 C-89.17113281 121.95039062 -88.34226562 119.90078125 -87.48828125 117.7890625 C-86.69680748 115.77272498 -85.91572409 113.75264594 -85.13549805 111.73193359 C-84.59217312 110.34098309 -84.03831471 108.95409564 -83.47338867 107.57177734 C-79.11362352 97.24821886 -79.11362352 97.24821886 -80.86352539 86.51416016 C-81.23856201 85.6844873 -81.61359863 84.85481445 -82 84 C-82.72871332 81.8893029 -83.43678052 79.77141355 -84.12890625 77.6484375 C-84.51965332 76.48578369 -84.91040039 75.32312988 -85.31298828 74.12524414 C-92.00822786 54.03036817 -97.08321804 33.59198876 -102 13 C-107.2670323 13 -112.97458906 16.72163813 -117 20 Z M-148 44 C-172.66246909 68.91597464 -188.18312554 103.06386398 -188.08789062 138.30078125 C-188.07951172 139.52152344 -188.07113281 140.74226563 -188.0625 142 C-188.05798828 143.25167969 -188.05347656 144.50335937 -188.04882812 145.79296875 C-188.03711415 148.86202941 -188.02071073 151.93098907 -188 155 C-179.40656225 155.2392524 -170.94415627 154.58754081 -162.40063477 153.77319336 C-160.17447736 153.56126023 -157.94770046 153.35719511 -155.72070312 153.15429688 C-149.77846908 152.60324353 -143.87959763 152.04982709 -138 151 C-138.09087891 150.31824707 -138.18175781 149.63649414 -138.27539062 148.93408203 C-143.67433727 107.45217531 -140.9168974 68.1055604 -123.625 29.625 C-121.86364803 26.35792392 -121.86364803 26.35792392 -122 24 C-130.11084419 24 -142.34155309 38.42141413 -148 44 Z M61 50 C60.443125 51.11117187 59.88625 52.22234375 59.3125 53.3671875 C55.41195369 61.01852392 51.5940151 68.20602538 45.921875 74.7265625 C43.43164243 77.67232542 41.24201115 80.86118439 39 84 C52.53 84 66.06 84 80 84 C75.38 96.87 70.76 109.74 66 123 C63.03 123.495 63.03 123.495 60 124 C60.15855469 124.57363281 60.31710937 125.14726563 60.48046875 125.73828125 C63.06243478 135.13891999 65.52769874 144.57007622 68 154 C75.83878733 146.29753941 82.33885919 137.77718225 88.5625 128.75 C89.0994751 127.99372314 89.6364502 127.23744629 90.18969727 126.45825195 C93.33824419 121.79557695 94.80167984 118.78492171 94 113 C93.37043685 109.90128362 92.54581784 106.89926056 91.625 103.875 C91.36315918 103.01261719 91.10131836 102.15023437 90.83154297 101.26171875 C84.81555378 82.38642499 75.164958 64.83930428 62 50 C61.67 50 61.34 50 61 50 Z M-61 124 C-60.01 126.64 -59.02 129.28 -58 132 C-51.42699744 131.40245431 -45.04427908 129.65984967 -39 127 C-38.34 126.01 -37.68 125.02 -37 124 C-44.92 124 -52.84 124 -61 124 Z M13 124 C6.85317952 140.08277686 0.77893706 156.18882705 -5.16500854 172.34768677 C-5.84686682 174.19976486 -6.53040107 176.05122679 -7.21560669 177.90206909 C-8.18373705 180.51889846 -9.14546158 183.13799398 -10.10546875 185.7578125 C-10.39870026 186.54721725 -10.69193176 187.33662201 -10.99404907 188.14994812 C-12.11435328 191.2255195 -13 193.69963733 -13 197 C-14.98 197 -16.96 197 -19 197 C-19 200.96705695 -18.93372971 201.60183313 -16.8828125 204.63671875 C-16.44066406 205.29607422 -15.99851562 205.95542969 -15.54296875 206.63476562 C-14.84107422 207.65086914 -14.84107422 207.65086914 -14.125 208.6875 C-13.66480469 209.37650391 -13.20460938 210.06550781 -12.73046875 210.77539062 C-10.40749532 214.47516403 -10.40749532 214.47516403 -7 217 C-4.71932459 215.85192595 -2.60357701 214.65230165 -0.4375 213.3125 C0.22362793 212.90821777 0.88475586 212.50393555 1.56591797 212.08740234 C14.51772842 204.05200578 26.57039757 195.06893547 38 185 C38.73476563 184.36449219 39.46953125 183.72898437 40.2265625 183.07421875 C42.16317538 181.3960781 44.08242563 179.69984183 46 178 C46.81210937 177.29230469 47.62421875 176.58460938 48.4609375 175.85546875 C58.21180739 167.60576623 58.21180739 167.60576623 65 157 C64.90712288 154.98432687 64.90712288 154.98432687 64.27734375 152.9453125 C64.06787109 152.16414063 63.85839844 151.38296875 63.64257812 150.578125 C63.40990234 149.76859375 63.17722656 148.9590625 62.9375 148.125 C62.73189453 147.35414063 62.52628906 146.58328125 62.31445312 145.7890625 C60.26647747 138.34627193 57.61326236 131.31713461 55 124 C41.14 124 27.28 124 13 124 Z M-49.6875 135 C-51.440625 135.66 -53.19375 136.32 -55 137 C-52.69 141.95 -50.38 146.9 -48 152 C-45.92782515 148.89173772 -44.71574645 145.98123641 -43.375 142.5 C-42.92898438 141.3553125 -42.48296875 140.210625 -42.0234375 139.03125 C-40.84005587 136.05949893 -40.84005587 136.05949893 -41 133 C-44.37465686 133 -46.53965992 133.81493079 -49.6875 135 Z M-68.20703125 140.3203125 C-69.25375 140.60559814 -70.30046875 140.89088379 -71.37890625 141.18481445 C-72.51199219 141.49507568 -73.64507812 141.80533691 -74.8125 142.125 C-90.0731333 146.20208522 -105.46313108 149.17327775 -121 152 C-122.10472656 152.20157715 -123.20945312 152.4031543 -124.34765625 152.61083984 C-126.89816438 153.07541995 -129.44891768 153.53858514 -132 154 C-128.76702618 188.00465236 -106.48027823 221.2947113 -84 246 C-83.01 245.67 -82.02 245.34 -81 245 C-81 244.34 -81 243.68 -81 243 C-80.16597656 243.03480469 -79.33195312 243.06960938 -78.47265625 243.10546875 C-71.23184082 243.27964644 -65.71531509 242.7316536 -59 240 C-59 239.67 -59 239.34 -59 239 C-65.6 239 -72.2 239 -79 239 C-77.046875 234.06835938 -77.046875 234.06835938 -75.09375 229.13671875 C-73.83537487 226.08153552 -73.83537487 226.08153552 -74 223 C-72.58231323 223.23227295 -72.58231323 223.23227295 -71.13598633 223.46923828 C-63.42219669 224.56518654 -55.57194763 224.5506262 -47.79516602 224.77734375 C-45.72838849 224.8422908 -43.66192256 224.91808673 -41.59594727 225.00488281 C-38.58896825 225.13048321 -35.58262531 225.22109501 -32.57421875 225.3046875 C-31.66347092 225.34923065 -30.75272308 225.3937738 -29.81437683 225.43966675 C-22.80818434 225.57674906 -17.98032811 223.56707924 -12 220 C-12.598125 218.88625 -13.19625 217.7725 -13.8125 216.625 C-14.14894531 215.99851562 -14.48539062 215.37203125 -14.83203125 214.7265625 C-16.04763493 212.69497635 -16.04763493 212.69497635 -19 211 C-19.66 213.31 -20.32 215.62 -21 218 C-37.5 218 -54 218 -71 218 C-69.68 214.37 -68.36 210.74 -67 207 C-67 206.01 -67 205.02 -67 204 C-66.18144531 204.0721875 -65.36289062 204.144375 -64.51953125 204.21875 C-50.3605752 205.2929806 -36.19028987 205.0935086 -22 205 C-23.32 202.69 -24.64 200.38 -26 198 C-30.9296024 197.97528545 -35.85916874 197.95713309 -40.78881836 197.94506836 C-42.46590808 197.94003887 -44.14299342 197.93321452 -45.82006836 197.92456055 C-48.230317 197.91243441 -50.64050768 197.90675785 -53.05078125 197.90234375 C-53.80087967 197.89718246 -54.55097809 197.89202118 -55.32380676 197.88670349 C-58.48951232 197.88636215 -60.97337972 197.99112657 -64 199 C-63.35599243 197.26713745 -63.35599243 197.26713745 -62.69897461 195.49926758 C-61.10793385 191.20810588 -59.53334085 186.91106312 -57.96362305 182.61206055 C-57.28221952 180.7529946 -56.59637836 178.89554889 -55.90600586 177.03979492 C-54.91386824 174.37052331 -53.93788726 171.69581292 -52.96484375 169.01953125 C-52.65344955 168.19226028 -52.34205536 167.36498932 -52.02122498 166.51264954 C-50.13757072 161.2692779 -49.66166963 158.21422793 -51.84790039 152.96362305 C-52.17781982 152.31949463 -52.50773926 151.67536621 -52.84765625 151.01171875 C-53.20537109 150.30595703 -53.56308594 149.60019531 -53.93164062 148.87304688 C-54.30482422 148.15181641 -54.67800781 147.43058594 -55.0625 146.6875 C-55.43955078 145.94693359 -55.81660156 145.20636719 -56.20507812 144.44335938 C-57.13128157 142.62612478 -58.06490629 140.81267596 -59 139 C-62.55971704 139 -64.84028307 139.37960782 -68.20703125 140.3203125 Z M-154.125 155.9375 C-165.07570262 156.89156398 -176.01849567 157.53838809 -187 158 C-187.22978622 164.2329513 -186.46797013 169.69889056 -185 175.75 C-184.77924805 176.66031982 -184.55849609 177.57063965 -184.33105469 178.50854492 C-177.29949717 206.09480086 -162.93905575 228.97843782 -143 249 C-142.11828125 249.94875 -141.2365625 250.8975 -140.328125 251.875 C-133.0341565 256.53218176 -122.95516916 253.8270874 -114.75 252.6875 C-113.26197876 252.4877356 -113.26197876 252.4877356 -111.74389648 252.28393555 C-103.75431096 251.17899975 -95.87243342 249.75357522 -88 248 C-91.34790564 243.37281334 -94.8709316 238.99256876 -98.625 234.6875 C-117.99206275 211.80653526 -129.03093547 183.54590279 -137 155 C-142.74978857 154.85381893 -148.40598512 155.42278866 -154.125 155.9375 Z " fill="#137537" transform="translate(404,412)"/>
<path d="M0 0 C11.7189401 -0.06988892 23.43782961 -0.12300712 35.15693665 -0.15543652 C40.60014269 -0.17101062 46.04320485 -0.19209587 51.48632812 -0.22631836 C56.75130605 -0.259209 62.01614665 -0.27691488 67.28121948 -0.28463173 C69.27759967 -0.29012243 71.27397339 -0.30084227 73.27029419 -0.31719017 C92.70584789 -0.46984012 112.28495334 0.55464681 127.8046875 13.75390625 C136.52481678 22.67574671 138.39332914 32.36631362 138.28881836 44.33764648 C137.84153721 66.49912369 126.14015625 86.22659803 110.61474609 101.47192383 C98.73186555 112.66348635 84.03112467 120.05954441 68.5 124.75 C67.52305176 125.04813599 67.52305176 125.04813599 66.52636719 125.35229492 C52.47910545 129.36260594 38.66673551 129.24854495 24.1875 129.125 C22.12695749 129.11494778 20.06641021 129.10582591 18.00585938 129.09765625 C13.00378682 129.07582581 8.00194713 129.04142003 3 129 C2.83280457 129.66807678 2.66560913 130.33615356 2.49334717 131.0244751 C0.42592301 139.16913009 -2.40354937 146.99673688 -5.29833984 154.87402344 C-6.13549917 157.15358899 -6.96467467 159.43595009 -7.79296875 161.71875 C-8.32245597 163.16943907 -8.85238701 164.61996624 -9.3828125 166.0703125 C-9.6307254 166.75247833 -9.87863831 167.43464417 -10.13406372 168.13748169 C-11.88433865 172.88433865 -11.88433865 172.88433865 -13 174 C-14.56547048 174.09326716 -16.13512772 174.11745582 -17.70336914 174.11352539 C-18.70433121 174.11344986 -19.70529327 174.11337433 -20.73658752 174.11329651 C-21.8251152 174.10813522 -22.91364288 174.10297394 -24.03515625 174.09765625 C-25.14354355 174.0962413 -26.25193085 174.09482635 -27.39390564 174.09336853 C-30.95013069 174.08775033 -34.50629383 174.07519475 -38.0625 174.0625 C-40.46679597 174.05748734 -42.87109292 174.05292403 -45.27539062 174.04882812 C-51.18361504 174.03777499 -57.0918031 174.02101917 -63 174 C-61.93790443 168.3919701 -59.99743052 163.34795914 -58 158 C-53.71 157.67 -49.42 157.34 -45 157 C-48.96 156.67 -52.92 156.34 -57 156 C-51.42630162 139.69622279 -45.66058711 123.47927524 -39.65817261 107.32861328 C-37.38827225 101.21925748 -35.12736743 95.10658663 -32.87109375 88.9921875 C-32.63582285 88.35468315 -32.40055195 87.7171788 -32.15815163 87.06035614 C-28.27127904 76.52052741 -24.45045201 65.95772388 -20.66015625 55.3828125 C-20.3986377 54.65340328 -20.13711914 53.92399406 -19.86767578 53.17248154 C-17.30299476 46.0177205 -14.7433486 38.86118695 -12.19333363 31.70118523 C-11.24823385 29.04935091 -10.30050437 26.39846097 -9.35229301 23.74773788 C-8.706809 21.94001588 -8.06513256 20.13093569 -7.42359924 18.32180786 C-5.19234504 12.08620664 -2.78591369 6.00808475 0 0 Z M36 40 C31.97279301 49.27788384 28.48138537 58.71425664 25.06860352 68.23120117 C24.17494913 70.72248873 23.27627362 73.21192475 22.37695312 75.70117188 C21.80700206 77.2837499 21.23732981 78.86642837 20.66796875 80.44921875 C20.39929489 81.19386887 20.13062103 81.93851898 19.85380554 82.70573425 C18.56111204 85.77921813 18.56111204 85.77921813 18 89 C22.94381496 89.07481328 27.88729189 89.12891154 32.83154297 89.16479492 C34.50933583 89.17977234 36.18709028 89.20016154 37.86474609 89.22631836 C52.29758051 89.44551864 64.01515698 88.57644106 74.9765625 78.11328125 C81.88930836 70.62692456 85.42753653 62.95397408 85.265625 52.7265625 C84.87573086 48.72441386 83.84205755 46.84205755 81 44 C72.9181721 38.2396822 62.84425099 39.55545984 53.4375 39.75 C51.74416174 39.77009512 50.05080047 39.78834057 48.35742188 39.8046875 C44.23770628 39.84844662 40.11911049 39.9173061 36 40 Z " fill="#197239" transform="translate(822,496)"/>
<path d="M0 0 C6.08729932 5.19050969 11.55856516 11.16397674 14.125 18.86328125 C6.51867881 24.76936594 -1.30057085 30.24299289 -9.34765625 35.53100586 C-14.34067166 38.81484915 -19.19049158 42.20798714 -23.9296875 45.8515625 C-25.875 46.86328125 -25.875 46.86328125 -27.93359375 46.796875 C-30.52792279 45.54930027 -31.46563599 43.99477721 -33.0625 41.61328125 C-38.98832925 33.68701283 -47.29538072 30.52374859 -56.875 28.86328125 C-74.3534679 26.99221811 -92.29850862 32.93025456 -106.01611328 43.6706543 C-119.56205538 54.85604879 -130.11461669 71.28083972 -132.875 88.86328125 C-132.9463788 91.49002122 -132.9763093 94.08282728 -132.94140625 96.70703125 C-132.93661255 97.39764648 -132.93181885 98.08826172 -132.92687988 98.79980469 C-132.91446909 100.48767317 -132.89541682 102.17549062 -132.875 103.86328125 C-150.90452768 103.96940452 -168.87216362 104.01021963 -186.875 102.86328125 C-184.07976759 69.36271644 -165.0866151 39.83934612 -139.8984375 18.3203125 C-104.57227127 -10.44258298 -40.26346113 -29.9240669 0 0 Z " fill="#1B713B" transform="translate(698.875,506.13671875)"/>
<path d="M0 0 C3.3273753 0.05390121 6.65476099 0.10713273 9.98214722 0.16035461 C26.18255557 0.42063497 42.38267117 0.69595318 58.5825882 0.98519135 C61.00162637 1.02836725 63.42066829 1.07133364 65.83971405 1.11408234 C72.65351195 1.23466798 79.46721113 1.35934078 86.28081512 1.49044418 C88.34470173 1.52972166 90.40861057 1.56785158 92.47254181 1.60470963 C103.71429619 1.80690301 114.89905803 2.15512172 126.10934448 3.05036926 C126.10934448 3.38036926 126.10934448 3.71036926 126.10934448 4.05036926 C100.16527069 5.22910697 74.19886675 5.60099148 48.23434448 6.05036926 C47.00744148 6.07187798 45.78053848 6.09338669 44.5164566 6.11554718 C-0.06566125 6.89602739 -44.64757669 7.35562362 -89.23531055 7.65977478 C-91.4972856 7.67524364 -93.75925923 7.69090714 -96.0212326 7.70661926 C-154.52465588 8.11186231 -213.01970192 8.10069584 -271.52309418 7.69102478 C-273.78389895 7.6752419 -276.04470504 7.65966115 -278.30551147 7.64411926 C-323.17144174 7.33460739 -368.03045298 6.83715123 -412.89065552 6.05036926 C-414.10429527 6.02934395 -415.31793503 6.00831863 -416.56835175 5.98665619 C-467.44304505 5.10446698 -467.44304505 5.10446698 -491.89065552 4.05036926 C-491.89065552 3.72036926 -491.89065552 3.39036926 -491.89065552 3.05036926 C-479.37239116 2.13197079 -466.87935183 1.77755014 -454.33206177 1.55036926 C-452.22710766 1.50984339 -450.12215781 1.46909639 -448.01721191 1.42814636 C-441.16262844 1.29642685 -434.30790767 1.17294605 -427.45315552 1.05036926 C-425.66543669 1.01810619 -425.66543669 1.01810619 -423.84160233 0.98519135 C-406.63675386 0.6747191 -389.43165545 0.38154047 -372.22624207 0.10415649 C-370.08389511 0.06961057 -367.94155072 0.0349054 -365.79920959 0 C-273.75131569 -1.49914826 -181.66338069 -1.29183315 0 0 Z " fill="#19723A" transform="translate(819.8906555175781,702.9496307373047)"/>
<path d="M0 0 C25.6727765 -0.24177492 51.3353247 0.43237613 77 1 C75.08672419 8.31226634 72.91996178 15.48272452 70.4609375 22.62890625 C70.13461334 23.58522446 69.80828918 24.54154266 69.47207642 25.52684021 C68.78961672 27.52470422 68.10555011 29.52201999 67.41992188 31.51879883 C66.36733481 34.58482756 65.31999417 37.65261135 64.2734375 40.72070312 C63.6070729 42.66937415 62.94041691 44.61794557 62.2734375 46.56640625 C61.95990326 47.48402237 61.64636902 48.40163849 61.32333374 49.34706116 C60.88750473 50.61494728 60.88750473 50.61494728 60.44287109 51.90844727 C60.18766693 52.65248306 59.93246277 53.39651886 59.66952515 54.1631012 C59 56 59 56 58 58 C41.30133036 58.10875887 24.67196306 58.09838815 8 57 C10 55 10 55 12.46484375 54.21875 C15.87728908 52.5782524 16.2664264 51.00436624 17.5625 47.5 C17.93503906 46.5203125 18.30757812 45.540625 18.69140625 44.53125 C19.12324219 43.3659375 19.55507813 42.200625 20 41 C21.32 37.7 22.64 34.4 24 31 C12.78 31 1.56 31 -10 31 C-6.625 18.625 -6.625 18.625 -5.17578125 14.55078125 C-4.86962891 13.68388672 -4.56347656 12.81699219 -4.24804688 11.92382812 C-3.78495117 10.6312207 -3.78495117 10.6312207 -3.3125 9.3125 C-2.99216797 8.40822266 -2.67183594 7.50394531 -2.34179688 6.57226562 C-1.5647253 4.3802279 -0.78411134 2.18952716 0 0 Z " fill="#187339" transform="translate(612,573)"/>
<path d="M0 0 C-1.08649531 5.12204933 -2.32004238 10.0318691 -4 15 C-17.03404879 14.89086846 -30.06805948 14.77796312 -43.10203743 14.66066074 C-49.15883185 14.60626079 -55.21563114 14.55300578 -61.27246094 14.50268555 C-73.97036861 14.39646833 -86.66775168 14.27308482 -99.36507034 14.1101017 C-105.55951296 14.03264257 -111.75305564 13.9837092 -117.94794655 13.96508503 C-121.53258771 13.94926478 -125.11667793 13.90991124 -128.70104599 13.86387444 C-130.33435244 13.84803936 -131.96779542 13.84246653 -133.60116959 13.8479023 C-135.81073354 13.85405281 -138.01691999 13.82411191 -140.22607422 13.78491211 C-141.4478537 13.77801865 -142.66963318 13.77112518 -143.92843628 13.76402283 C-147 13 -147 13 -149.36087036 10.20094299 C-150.64324557 7.69668108 -151.57673443 5.75122619 -152 3 C-132.47974604 2.26696515 -112.97088862 1.800812 -93.4390564 1.5541687 C-86.13634736 1.46188661 -78.83379026 1.35859863 -71.53125 1.25390625 C-70.81300741 1.24366991 -70.09476482 1.23343357 -69.35475731 1.22288704 C-55.03556042 1.01712477 -40.72012317 0.70434322 -26.4050293 0.3046875 C-17.60023333 0.06197964 -8.80874452 -0.0551148 0 0 Z " fill="#187339" transform="translate(668,635)"/>
<path d="M0 0 C3.64259459 2.81590645 6.17793034 5.85410351 7.65234375 10.27734375 C8.52648298 17.95830486 6.8098247 24.29030758 3.65234375 31.27734375 C1.95297897 32.97670853 -0.17165448 32.40542655 -2.43861389 32.41616821 C-3.51700783 32.41319229 -3.51700783 32.41319229 -4.6171875 32.41015625 C-5.36177719 32.41147552 -6.10636688 32.4127948 -6.8735199 32.41415405 C-9.30244053 32.41607645 -11.7312473 32.40972971 -14.16015625 32.40234375 C-14.97778442 32.40145752 -15.7954126 32.40057129 -16.63781738 32.3996582 C-28.89846547 32.38394485 -41.11339101 32.13804583 -53.34765625 31.27734375 C-52.62499719 25.18316733 -51.70447599 19.83930523 -47.34765625 15.27734375 C-43.97385158 14.23012304 -40.86108397 14.10678901 -37.34765625 14.27734375 C-39.65765625 13.94734375 -41.96765625 13.61734375 -44.34765625 13.27734375 C-41.28435049 5.96390172 -33.47694536 1.98055948 -26.48828125 -0.99609375 C-18.18095725 -3.81573292 -7.73665632 -4.5961954 0 0 Z " fill="#167338" transform="translate(739.34765625,618.72265625)"/>
<path d="M0 0 C0.92152863 0.00085602 1.84305725 0.00171204 2.79251099 0.00259399 C14.34085996 0.01410704 25.88917982 0.03435656 37.4375 0.0625 C22.87131613 14.62868387 -13.04938378 17.16359538 -32.4375 17.375 C-49.781661 17.30383839 -70.53103041 14.84416506 -83.5625 2.0625 C-83.5625 1.7325 -83.5625 1.4025 -83.5625 1.0625 C-55.71058673 0.03741001 -27.86668792 -0.026068 0 0 Z " fill="#1A713A" transform="translate(614.5625,656.9375)"/>
<path d="M0 0 C2.64 0 5.28 0 8 0 C8 0.66 8 1.32 8 2 C8.56847656 1.67644531 9.13695312 1.35289062 9.72265625 1.01953125 C13.41628261 -0.63404762 17.02648469 -0.48785152 21 0 C24.0625 1.5 24.0625 1.5 26 3 C26.639375 2.505 27.27875 2.01 27.9375 1.5 C32.05410262 -0.51629516 35.49113305 -0.60554656 40 0 C42.92939473 1.24655095 44.43231751 2.09299876 46.11669922 4.78417969 C47.16340492 7.40991239 47.22812871 9.38093121 47.1953125 12.203125 C47.18886719 13.1828125 47.18242188 14.1625 47.17578125 15.171875 C47.15902344 16.18765625 47.14226563 17.2034375 47.125 18.25 C47.11597656 19.28125 47.10695313 20.3125 47.09765625 21.375 C47.07412011 23.91690287 47.04124023 26.4583328 47 29 C44.36 29 41.72 29 39 29 C38.95101562 27.80761719 38.90203125 26.61523438 38.8515625 25.38671875 C38.77652396 23.82028932 38.7009766 22.25388421 38.625 20.6875 C38.5940625 19.90181641 38.563125 19.11613281 38.53125 18.30664062 C38.47324219 17.1706543 38.47324219 17.1706543 38.4140625 16.01171875 C38.3826416 15.31522217 38.3512207 14.61872559 38.31884766 13.90112305 C38.07881747 11.67467261 38.07881747 11.67467261 36 9 C33.5 8.58333333 33.5 8.58333333 31 9 C28.64641749 11.35358251 28.72128096 11.92968394 28.5859375 15.1328125 C28.54726563 15.93847656 28.50859375 16.74414062 28.46875 17.57421875 C28.42234375 18.83685547 28.42234375 18.83685547 28.375 20.125 C28.33632813 20.97449219 28.29765625 21.82398438 28.2578125 22.69921875 C28.16343506 24.79911684 28.08062414 26.89952891 28 29 C25.03 29 22.06 29 19 29 C18.93941406 27.72382812 18.87882813 26.44765625 18.81640625 25.1328125 C18.73200432 23.46352984 18.64735614 21.79425963 18.5625 20.125 C18.52318359 19.28324219 18.48386719 18.44148437 18.44335938 17.57421875 C18.40146484 16.76855469 18.35957031 15.96289062 18.31640625 15.1328125 C18.27974854 14.38918457 18.24309082 13.64555664 18.20532227 12.87939453 C18.10044135 10.91135688 18.10044135 10.91135688 17 9 C15.02 9 13.04 9 11 9 C8.52954197 12.81615468 8.56168088 16.84744248 8.375 21.25 C8.31699219 22.36761719 8.31699219 22.36761719 8.2578125 23.5078125 C8.16394892 25.3381524 8.08090282 27.16904143 8 29 C5.36 29 2.72 29 0 29 C0 19.43 0 9.86 0 0 Z " fill="#336646" transform="translate(905,741)"/>
<path d="M0 0 C2.97 0 5.94 0 9 0 C9.33 3.63 9.66 7.26 10 11 C10.66 10.67 11.32 10.34 12 10 C16.98066973 9.45355962 20.8958307 9.45795325 25.4375 11.6875 C28.90992918 14.8211556 30.75585639 16.78236224 31.28125 21.5546875 C31.45966369 27.04090832 31.32614034 31.41222022 28 36 C24.08999135 39.23972145 19.94900424 39.87234711 15 40 C12.99453311 39.70131344 10.99422795 39.36628677 9 39 C6.03 39 3.06 39 0 39 C0 26.13 0 13.26 0 0 Z M11.3125 18.5625 C8.68222042 20.87572574 8.68222042 20.87572574 8.4375 24.5 C8.76483366 27.98411459 8.76483366 27.98411459 10.5625 30.5 C13.03768037 32.32491235 13.03768037 32.32491235 16.625 31.9375 C20.25516924 31.3249155 20.25516924 31.3249155 22 28 C22.58342353 24.54230809 22.58342353 24.54230809 22 21 C19.81501244 18.46808501 19.81501244 18.46808501 17 17 C13.91413567 16.74868977 13.91413567 16.74868977 11.3125 18.5625 Z " fill="#336646" transform="translate(699,731)"/>
<path d="M0 0 C4 0 8 0 12 0 C12.74894531 -0.04640625 13.49789063 -0.0928125 14.26953125 -0.140625 C20.0680687 -0.39002446 23.50022885 -0.06076909 28 4 C31.61856685 7.98042354 31.44425726 12.20018947 31.28515625 17.33984375 C30.78540053 22.00194853 29.41019495 24.83155276 25.8125 27.8125 C19.80640452 30.34840698 16.11534427 30.44613771 10 28 C9.67 31.63 9.34 35.26 9 39 C6.03 39 3.06 39 0 39 C0 26.13 0 13.26 0 0 Z M11.3125 8.5625 C8.68222042 10.87572574 8.68222042 10.87572574 8.4375 14.5 C8.76483366 17.98411459 8.76483366 17.98411459 10.5625 20.5 C13.03768037 22.32491235 13.03768037 22.32491235 16.625 21.9375 C20.25516924 21.3249155 20.25516924 21.3249155 22 18 C22.58342353 14.54230809 22.58342353 14.54230809 22 11 C19.81501244 8.46808501 19.81501244 8.46808501 17 7 C13.91413567 6.74868977 13.91413567 6.74868977 11.3125 8.5625 Z " fill="#336646" transform="translate(452,741)"/>
<path d="M0 0 C3.320625 -0.061875 6.64125 -0.12375 10.0625 -0.1875 C11.09511963 -0.21481201 12.12773926 -0.24212402 13.19165039 -0.27026367 C20.08347964 -0.33208871 25.12533236 0.3522798 30.375 5.1875 C33.30815379 10.26411233 33.44138354 14.23446584 32.0625 19.75 C29.3487867 24.02615429 26.88540643 25.72655283 22 27 C17.97363816 27.30062188 14.02798304 27.24167898 10 27 C10 30.3 10 33.6 10 37 C6.7 37 3.4 37 0 37 C0 24.79 0 12.58 0 0 Z M10 8 C10 11.96 10 15.92 10 20 C14.16021408 20.21153631 17.08997426 20.34125965 21 18.875 C23.29468448 17.10400629 23.29468448 17.10400629 23.5 14 C22.94882845 10.69297071 22.63094195 9.94311399 20 8 C17.48710325 7.63786432 17.48710325 7.63786432 14.8125 7.8125 C13.224375 7.874375 11.63625 7.93625 10 8 Z " fill="#336646" transform="translate(797,733)"/>
<path d="M0 0 C2.5 2.125 2.5 2.125 4.5 5.125 C2.85 6.445 1.2 7.765 -0.5 9.125 C-1.16 8.815625 -1.82 8.50625 -2.5 8.1875 C-7.60397783 6.37984119 -11.65632716 5.51044239 -16.875 7.25 C-19.91427274 9.4209091 -20.66145865 10.5192722 -21.5 14.125 C-21.98342613 18.76589088 -21.37833987 21.42427731 -18.5 25.125 C-15.35342565 27.12611088 -12.93994432 27.3471038 -9.25 27.25 C-7.6825 27.20875 -6.115 27.1675 -4.5 27.125 C-4.5 23.495 -4.5 19.865 -4.5 16.125 C-1.86 16.125 0.78 16.125 3.5 16.125 C3.5 21.405 3.5 26.685 3.5 32.125 C-3.52441521 35.63720761 -9.7985586 37.4609466 -17.6171875 35.62890625 C-23.46727072 33.67519921 -26.79971924 30.58747558 -30.3125 25.5 C-32.38472715 19.61051231 -32.34189473 13.74973064 -30.4375 7.8125 C-26.58346181 2.46657605 -22.29051968 -1.44552348 -15.67578125 -2.69140625 C-9.91006673 -3.17792076 -5.13209916 -2.74933884 0 0 Z " fill="#336646" transform="translate(639.5,734.875)"/>
<path d="M0 0 C1.37109375 1.48828125 1.37109375 1.48828125 2.4375 3.3125 C4.82442926 7.01452086 7.2577437 8.73724037 11 11 C11 11.33 11 11.66 11 12 C-11.11 12 -33.22 12 -56 12 C-56.9681648 8.1273408 -57.07622858 4.96388638 -57 1 C-53.69312615 0.26916088 -50.58120295 -0.14353294 -47.19726562 -0.22119141 C-46.2728064 -0.24436432 -45.34834717 -0.26753723 -44.39587402 -0.29141235 C-43.4092981 -0.3112619 -42.42272217 -0.33111145 -41.40625 -0.3515625 C-40.38196899 -0.37471527 -39.35768799 -0.39786804 -38.30236816 -0.42172241 C-36.1405916 -0.46925548 -33.97876372 -0.51450207 -31.81689453 -0.55761719 C-28.51183646 -0.62475954 -25.20714451 -0.70255256 -21.90234375 -0.78125 C-19.79949284 -0.82616577 -17.6966285 -0.87045756 -15.59375 -0.9140625 C-14.11388611 -0.94990952 -14.11388611 -0.94990952 -12.60412598 -0.98648071 C-11.67966675 -1.0033493 -10.75520752 -1.0202179 -9.80273438 -1.03759766 C-8.58958557 -1.06305161 -8.58958557 -1.06305161 -7.35192871 -1.08901978 C-4.79065816 -0.99207648 -2.48124357 -0.64124966 0 0 Z " fill="#1B713B" transform="translate(569,617)"/>
<path d="M0 0 C-6.32039974 9.33695416 -15.01941568 15.04557119 -26.0625 17.75 C-34.66664261 18.48226746 -42.03480728 18.2902663 -48.9375 12.5625 C-52.24917806 8.44799089 -53.09510785 6.25687051 -53 1 C-35.3207984 -0.03886179 -17.7019046 -0.11251944 0 0 Z " fill="#1B713B" transform="translate(739,655)"/>
<path d="M0 0 C18.48 0.33 36.96 0.66 56 1 C54 10 54 10 53 12 C34.19 12 15.38 12 -4 12 C-3 5 -3 5 0 0 Z " fill="#19723A" transform="translate(432,637)"/>
<path d="M0 0 C16.83 0 33.66 0 51 0 C47.19672999 7.60654003 40.12159327 11.35626397 32.359375 14.2734375 C23.91879984 16.87268747 15.96747456 17.06219162 8 13 C3.79310331 10.2888888 1.87358369 7.63465439 0 3 C0 2.01 0 1.02 0 0 Z " fill="#1B713A" transform="translate(427,657)"/>
<path d="M0 0 C3.91187399 2.06853891 6.39348201 4.13129033 7.89453125 8.28125 C8.5487977 13.62987819 8.56988382 17.88051875 6.20703125 22.78125 C1.98683508 27.34362423 -1.72005788 28.84966076 -7.828125 29.34765625 C-12.48584022 29.21183951 -15.87612456 27.27801556 -19.41796875 24.40625 C-22.9855347 19.91375955 -23.60402032 15.96473794 -23.10546875 10.28125 C-21.36130501 5.59954732 -19.23511036 3.06875809 -15.10546875 0.28125 C-10.24121101 -1.34016925 -4.91117446 -1.67654193 0 0 Z M-11.85546875 8.34375 C-14.47284853 11.14418638 -14.47284853 11.14418638 -14.10546875 14.90625 C-13.05633522 18.86126183 -13.05633522 18.86126183 -10.10546875 21.28125 C-7.10546875 21.86458333 -7.10546875 21.86458333 -4.10546875 21.28125 C-1.32446549 18.96374729 -1.11889515 17.3752348 -0.60546875 13.78125 C-0.77910148 10.15437506 -0.77910148 10.15437506 -3.41796875 7.84375 C-7.21872603 5.6340074 -8.32208836 5.69371471 -11.85546875 8.34375 Z " fill="#336646" transform="translate(686.10546875,741.71875)"/>
<path d="M0 0 C4.85857844 2.29678253 7.63468979 5.17840611 10 10 C10.89608574 15.60808715 10.30154375 20.26778729 7 25 C2.4263377 29.0291787 -2.01761801 30.25306184 -8 30 C-12.4358871 29.11595195 -15.26777718 27.75099777 -18.4375 24.5 C-21.36306365 19.81909817 -21.65417865 15.38084971 -21 10 C-16.52327497 0.87436821 -9.60493899 -1.40280778 0 0 Z M-9.6875 9.125 C-12.21417031 11.79955778 -12.21417031 11.79955778 -12.5625 15.0625 C-12.17825746 18.05428169 -12.17825746 18.05428169 -10.4375 20.4375 C-7.97376884 22.33441535 -7.97376884 22.33441535 -4.375 21.9375 C-0.74483076 21.3249155 -0.74483076 21.3249155 1 18 C1.5838196 15.0850745 1.5838196 15.0850745 1 12 C-1.18802581 9.06145926 -1.18802581 9.06145926 -4 7 C-7.17881179 6.68988221 -7.17881179 6.68988221 -9.6875 9.125 Z " fill="#336646" transform="translate(507,741)"/>
<path d="M0 0 C3.88383075 1.97722293 6.99050561 4.08677409 9 8 C9.33 10.97 9.66 13.94 10 17 C3.07 17 -3.86 17 -11 17 C-10.01 18.32 -9.02 19.64 -8 21 C-3.78077237 21.33485934 -0.0486801 21.34956003 4 20 C5.32 21.65 6.64 23.3 8 25 C4.17704447 28.95038739 0.86334712 29.77399816 -4.43359375 30.09765625 C-9.89269196 29.88992801 -13.67367788 28.39433864 -17.4375 24.4375 C-20.66790229 19.39807243 -20.59181467 14.90147583 -20 9 C-18.2423733 5.21434249 -16.74404501 3.53146072 -13.375 1.125 C-8.81229326 -0.39590225 -4.76184604 -0.70459836 0 0 Z M-9.875 8.375 C-11.18973666 9.94466014 -11.18973666 9.94466014 -11 12 C-7.04 12 -3.08 12 1 12 C-0.57836298 8.31622777 -0.57836298 8.31622777 -2 7 C-6.21400035 6.57380299 -6.21400035 6.57380299 -9.875 8.375 Z " fill="#336646" transform="translate(890,741)"/>
<path d="M0 0 C3.82462036 3.72397246 4.49044223 6.95611097 4.5703125 12.17578125 C4.55710152 13.99229066 4.53337281 15.80874913 4.5 17.625 C4.49097656 18.55634766 4.48195313 19.48769531 4.47265625 20.44726562 C4.44918263 22.7359436 4.41634729 25.02408672 4.375 27.3125 C0.70833333 27.3125 -2.95833333 27.3125 -6.625 27.3125 C-7.883125 27.539375 -9.14125 27.76625 -10.4375 28 C-14.62161673 28.55480001 -17.03753374 27.61872831 -20.625 25.3125 C-22.625 23.3125 -22.625 23.3125 -23 19.4375 C-22.93068818 16.25493212 -22.77173726 15.50325844 -20.75 12.875 C-17.13000466 10.21323872 -14.97133091 10.20243265 -10.5 10.25 C-9.40429688 10.25902344 -8.30859375 10.26804687 -7.1796875 10.27734375 C-6.33664062 10.28894531 -5.49359375 10.30054688 -4.625 10.3125 C-4.955 8.9925 -5.285 7.6725 -5.625 6.3125 C-10.54627034 6.14567728 -14.12843896 6.06421948 -18.625 8.3125 C-21.625 4.9525 -21.625 4.9525 -21.625 2.1875 C-18.07756082 -4.46394846 -5.55478669 -2.58584898 0 0 Z M-13.625 16.3125 C-13.955 17.3025 -14.285 18.2925 -14.625 19.3125 C-12.73999729 21.62813087 -12.73999729 21.62813087 -9.625 21.5625 C-6.51000271 21.62813087 -6.51000271 21.62813087 -4.625 19.3125 C-4.625 17.9925 -4.625 16.6725 -4.625 15.3125 C-7.96752724 15.23822162 -10.4285914 15.24703047 -13.625 16.3125 Z " fill="#336646" transform="translate(755.625,742.6875)"/>
<path d="M0 0 C3.82462036 3.72397246 4.49044223 6.95611097 4.5703125 12.17578125 C4.55710152 13.99229066 4.53337281 15.80874913 4.5 17.625 C4.49097656 18.55634766 4.48195313 19.48769531 4.47265625 20.44726562 C4.44918263 22.7359436 4.41634729 25.02408672 4.375 27.3125 C0.70833333 27.3125 -2.95833333 27.3125 -6.625 27.3125 C-7.883125 27.539375 -9.14125 27.76625 -10.4375 28 C-14.62161673 28.55480001 -17.03753374 27.61872831 -20.625 25.3125 C-22.625 23.3125 -22.625 23.3125 -23 19.4375 C-22.93068818 16.25493212 -22.77173726 15.50325844 -20.75 12.875 C-17.13000466 10.21323872 -14.97133091 10.20243265 -10.5 10.25 C-9.40429688 10.25902344 -8.30859375 10.26804687 -7.1796875 10.27734375 C-6.33664062 10.28894531 -5.49359375 10.30054688 -4.625 10.3125 C-4.955 8.9925 -5.285 7.6725 -5.625 6.3125 C-10.54627034 6.14567728 -14.12843896 6.06421948 -18.625 8.3125 C-21.625 4.9525 -21.625 4.9525 -21.625 2.1875 C-18.07756082 -4.46394846 -5.55478669 -2.58584898 0 0 Z M-13.625 16.3125 C-13.955 17.3025 -14.285 18.2925 -14.625 19.3125 C-12.73999729 21.62813087 -12.73999729 21.62813087 -9.625 21.5625 C-6.51000271 21.62813087 -6.51000271 21.62813087 -4.625 19.3125 C-4.625 17.9925 -4.625 16.6725 -4.625 15.3125 C-7.96752724 15.23822162 -10.4285914 15.24703047 -13.625 16.3125 Z " fill="#336646" transform="translate(377.625,742.6875)"/>
<path d="M0 0 C2.64 0 5.28 0 8 0 C8 0.66 8 1.32 8 2 C8.55816406 1.67773438 9.11632812 1.35546875 9.69140625 1.0234375 C13.68318236 -0.74618237 17.72138897 -0.56169772 22 0 C26.14566898 2.3319388 27.67791197 4.50724068 29 9 C29.2374903 12.44176546 29.18835145 15.86471922 29.125 19.3125 C29.11597656 20.24384766 29.10695313 21.17519531 29.09765625 22.13476562 C29.07418422 24.42328823 29.03831609 26.71167779 29 29 C26.03 29 23.06 29 20 29 C19.93941406 27.72382812 19.87882812 26.44765625 19.81640625 25.1328125 C19.73200432 23.46352984 19.64735614 21.79425963 19.5625 20.125 C19.52318359 19.28324219 19.48386719 18.44148437 19.44335938 17.57421875 C19.40146484 16.76855469 19.35957031 15.96289062 19.31640625 15.1328125 C19.27974854 14.38918457 19.24309082 13.64555664 19.20532227 12.87939453 C19.10044135 10.91135688 19.10044135 10.91135688 18 9 C13.85906302 8.79029441 13.85906302 8.79029441 10 10 C8.76240177 13.71279469 8.64391103 17.31306346 8.4375 21.1875 C8.39431641 21.93708984 8.35113281 22.68667969 8.30664062 23.45898438 C8.20077315 25.30578375 8.0999024 27.15286834 8 29 C5.36 29 2.72 29 0 29 C0 19.43 0 9.86 0 0 Z " fill="#336646" transform="translate(389,741)"/>
<path d="M0 0 C10.56 0 21.12 0 32 0 C32 2.64 32 5.28 32 8 C28.04 8 24.08 8 20 8 C20 17.57 20 27.14 20 37 C17.03 37 14.06 37 11 37 C11 27.43 11 17.86 11 8 C7.37 8 3.74 8 0 8 C0 5.36 0 2.72 0 0 Z " fill="#336646" transform="translate(300,733)"/>
<path d="M0 0 C-0.99 2.31 -1.98 4.62 -3 7 C-3.495 6.835 -3.99 6.67 -4.5 6.5 C-8.03444089 5.79311182 -11.39690701 5.93994845 -15 6 C-15 6.66 -15 7.32 -15 8 C-14.16855469 8.18175781 -13.33710937 8.36351562 -12.48046875 8.55078125 C-11.39378906 8.80214844 -10.30710937 9.05351563 -9.1875 9.3125 C-7.56908203 9.67794922 -7.56908203 9.67794922 -5.91796875 10.05078125 C-3.01712081 10.99443058 -1.79061405 11.58656367 0 14 C1.02832207 17.37877253 1.22238236 19.31696848 0.125 22.6875 C-3.05508017 26.14817548 -6.41593495 27.21958402 -11 28 C-16.1487627 28.05269202 -20.46717771 27.52053962 -25 25 C-24.125 20.25 -24.125 20.25 -23 18 C-21.824375 18.33 -20.64875 18.66 -19.4375 19 C-15.4988324 19.9969533 -12.04860871 20.16869203 -8 20 C-8.33 19.34 -8.66 18.68 -9 18 C-12.01334542 17.14097168 -15.05172309 16.52523911 -18.1171875 15.87890625 C-21.03262911 14.9900521 -22.21209412 14.41367294 -24 12 C-25.06632003 8.49637705 -25.29987996 6.71637991 -23.875 3.3125 C-17.92550462 -4.02521097 -8.23004558 -3.55893863 0 0 Z " fill="#336646" transform="translate(590,743)"/>
<path d="M0 0 C-0.99 2.31 -1.98 4.62 -3 7 C-3.495 6.835 -3.99 6.67 -4.5 6.5 C-8.03444089 5.79311182 -11.39690701 5.93994845 -15 6 C-15 6.66 -15 7.32 -15 8 C-14.16855469 8.18175781 -13.33710938 8.36351562 -12.48046875 8.55078125 C-11.39378906 8.80214844 -10.30710937 9.05351563 -9.1875 9.3125 C-7.56908203 9.67794922 -7.56908203 9.67794922 -5.91796875 10.05078125 C-3.01712081 10.99443058 -1.79061405 11.58656367 0 14 C1.02832207 17.37877253 1.22238236 19.31696848 0.125 22.6875 C-3.05508017 26.14817548 -6.41593495 27.21958402 -11 28 C-16.1487627 28.05269202 -20.46717771 27.52053962 -25 25 C-24.125 20.25 -24.125 20.25 -23 18 C-21.824375 18.33 -20.64875 18.66 -19.4375 19 C-15.4988324 19.9969533 -12.04860871 20.16869203 -8 20 C-8.33 19.34 -8.66 18.68 -9 18 C-12.01334542 17.14097168 -15.05172309 16.52523911 -18.1171875 15.87890625 C-21.03262911 14.9900521 -22.21209412 14.41367294 -24 12 C-25.06632003 8.49637705 -25.29987996 6.71637991 -23.875 3.3125 C-17.92550462 -4.02521097 -8.23004558 -3.55893863 0 0 Z " fill="#336646" transform="translate(447,743)"/>
<path d="M0 0 C2.97 0 5.94 0 9 0 C9 2.31 9 4.62 9 7 C11.31 7 13.62 7 16 7 C16 9.31 16 11.62 16 14 C13.69 14 11.38 14 9 14 C9.33 18.29 9.66 22.58 10 27 C11.65 27 13.3 27 15 27 C15.99 29.31 16.98 31.62 18 34 C14.16643927 36.03657914 11.25095519 36.12356686 7.0625 35.77734375 C3.72492479 34.51943188 2.16092493 32.81924457 0 30 C-0.58331241 27.19500633 -0.47800254 24.53668988 -0.3125 21.6875 C-0.28994141 20.94693359 -0.26738281 20.20636719 -0.24414062 19.44335938 C-0.1855815 17.62802643 -0.09590886 15.81374319 0 14 C-1.32 14 -2.64 14 -4 14 C-4 11.69 -4 9.38 -4 7 C-2.68 7 -1.36 7 0 7 C0 4.69 0 2.38 0 0 Z " fill="#336646" transform="translate(546,735)"/>
<path d="M0 0 C1.1446875 -0.01933594 2.289375 -0.03867187 3.46875 -0.05859375 C12.72513394 -0.00477756 12.72513394 -0.00477756 16.421875 2.7890625 C18.75 5.625 18.75 5.625 20.75 11.625 C4.58 11.625 -11.59 11.625 -28.25 11.625 C-19.92115129 1.63038155 -12.74237132 -0.21819129 0 0 Z " fill="#187339" transform="translate(467.25,617.375)"/>
<path d="M0 0 C2.97 0 5.94 0 9 0 C9 0.66 9 1.32 9 2 C9.556875 1.67 10.11375 1.34 10.6875 1 C13.30284522 -0.1309601 15.1806646 -0.15662974 18 0 C18 2.64 18 5.28 18 8 C16.865625 8.28875 15.73125 8.5775 14.5625 8.875 C13.386875 9.24625 12.21125 9.6175 11 10 C9.3501993 13.29960141 9.61741639 16.99127884 9.4375 20.625 C9.39431641 21.42679688 9.35113281 22.22859375 9.30664062 23.0546875 C9.20048543 25.0362511 9.09973145 27.01810271 9 29 C6.03 29 3.06 29 0 29 C0 19.43 0 9.86 0 0 Z " fill="#336646" transform="translate(834,741)"/>
<path d="M0 0 C2.64 0 5.28 0 8 0 C8.33 0.66 8.66 1.32 9 2 C9.556875 1.67 10.11375 1.34 10.6875 1 C13.30284522 -0.1309601 15.1806646 -0.15662974 18 0 C18 2.64 18 5.28 18 8 C16.865625 8.28875 15.73125 8.5775 14.5625 8.875 C13.386875 9.24625 12.21125 9.6175 11 10 C9.3501993 13.29960141 9.61741639 16.99127884 9.4375 20.625 C9.39431641 21.42679688 9.35113281 22.22859375 9.30664062 23.0546875 C9.20048543 25.0362511 9.09973145 27.01810271 9 29 C6.03 29 3.06 29 0 29 C0 19.43 0 9.86 0 0 Z " fill="#336646" transform="translate(522,741)"/>
<path d="M0 0 C2.64 0 5.28 0 8 0 C8.33 0.66 8.66 1.32 9 2 C9.556875 1.67 10.11375 1.34 10.6875 1 C13.30284522 -0.1309601 15.1806646 -0.15662974 18 0 C18 2.64 18 5.28 18 8 C16.88625 8.2475 15.7725 8.495 14.625 8.75 C11.06868056 9.59551962 11.06868056 9.59551962 9.8125 11.59375 C8.68344637 14.93748575 8.53360413 18.25410066 8.375 21.75 C8.31699219 22.79607422 8.31699219 22.79607422 8.2578125 23.86328125 C8.16401376 25.57510818 8.08093826 27.28751682 8 29 C5.36 29 2.72 29 0 29 C0 19.43 0 9.86 0 0 Z " fill="#336646" transform="translate(335,741)"/>
<path d="M0 0 C2.64 0 5.28 0 8 0 C8 12.87 8 25.74 8 39 C5.36 39 2.72 39 0 39 C0 26.13 0 13.26 0 0 Z " fill="#336646" transform="translate(767,731)"/>
<path d="M0 0 C2.64 0 5.28 0 8 0 C8 12.87 8 25.74 8 39 C5.36 39 2.72 39 0 39 C0 26.13 0 13.26 0 0 Z " fill="#336646" transform="translate(650,731)"/>
<path d="M0 0 C2.97 0 5.94 0 9 0 C9 9.57 9 19.14 9 29 C6.03 29 3.06 29 0 29 C0 19.43 0 9.86 0 0 Z " fill="#336646" transform="translate(856,741)"/>
<path d="M0 0 C0.66 0 1.32 0 2 0 C2.37584229 1.36257935 2.37584229 1.36257935 2.75927734 2.75268555 C8.91597884 25.00029288 15.38830082 47.09387519 23.796875 68.6171875 C25.01787481 72.05025839 25.32690545 73.63170155 24 77 C23.01 77.495 23.01 77.495 22 78 C16.01469877 60.62883265 10.10085431 43.26277197 5.375 25.5 C5.05724609 24.31132324 4.73949219 23.12264648 4.41210938 21.89794922 C2.53343761 14.64854715 1.09833029 7.40742205 0 0 Z " fill="#007E2E" transform="translate(302,426)"/>
<path d="M0 0 C3.5625 0.1875 3.5625 0.1875 5.5625 2.1875 C5.8125 4.6875 5.8125 4.6875 5.5625 7.1875 C3.5625 9.1875 3.5625 9.1875 0.0625 9.5 C-1.67 9.3453125 -1.67 9.3453125 -3.4375 9.1875 C-5.4375 6.1875 -5.4375 6.1875 -5.125 3.5625 C-4.0642205 -0.102011 -4.03994519 0.22036065 0 0 Z " fill="#336646" transform="translate(860.4375,728.8125)"/>
</svg>
